<svg xmlns="http://www.w3.org/2000/svg" xmlns:xlink="http://www.w3.org/1999/xlink" width="134" height="40" viewBox="0 0 134 40"><defs><clipPath id="b"><rect width="134" height="40"/></clipPath></defs><g id="a" clip-path="url(#b)"><g transform="translate(-78 -56)"><path d="M22,12H18l-3,9L9,3,6,12H2" transform="translate(84 64.5)" fill="none" stroke="#000" stroke-linecap="round" stroke-linejoin="round" stroke-width="3"/><path d="M10.234-6.058H19.12a5.941,5.941,0,0,1,.127.734,7.361,7.361,0,0,1,.051.861,10.041,10.041,0,0,1-.532,3.291,7.625,7.625,0,0,1-1.671,2.759,8.385,8.385,0,0,1-2.911,2A9.97,9.97,0,0,1,10.31,4.3a9.8,9.8,0,0,1-3.722-.709A9.265,9.265,0,0,1,3.55,1.613a9.476,9.476,0,0,1-2.051-3A9.331,9.331,0,0,1,.74-5.172,9.331,9.331,0,0,1,1.5-8.956a9.476,9.476,0,0,1,2.051-3,9.265,9.265,0,0,1,3.038-1.975,9.8,9.8,0,0,1,3.722-.709,9.721,9.721,0,0,1,3.937.759,8.816,8.816,0,0,1,2.975,2.1l-2.354,2.3a6.282,6.282,0,0,0-1.975-1.43,6.279,6.279,0,0,0-2.608-.494,6.312,6.312,0,0,0-2.354.443A5.9,5.9,0,0,0,5.981-9.7,5.973,5.973,0,0,0,4.651-7.741a6.46,6.46,0,0,0-.494,2.57A6.46,6.46,0,0,0,4.651-2.6,5.878,5.878,0,0,0,5.993-.64,6.046,6.046,0,0,0,7.955.613a6.38,6.38,0,0,0,2.38.443A6.341,6.341,0,0,0,12.778.638,5.725,5.725,0,0,0,14.487-.437a4.1,4.1,0,0,0,.873-1.152,6.532,6.532,0,0,0,.57-1.557h-5.7ZM21.221-8.513h3.114v1.722h.2a3.205,3.205,0,0,1,.608-.835,4.307,4.307,0,0,1,.848-.658,4.158,4.158,0,0,1,1.013-.43,3.989,3.989,0,0,1,1.076-.152,4.364,4.364,0,0,1,1.127.127,3.023,3.023,0,0,1,.8.329L29.12-5.4a3.146,3.146,0,0,0-.671-.241,3.893,3.893,0,0,0-.9-.089,2.843,2.843,0,0,0-1.241.266,2.727,2.727,0,0,0-.949.747,3.527,3.527,0,0,0-.608,1.127,4.419,4.419,0,0,0-.215,1.405V3.892H21.221Zm15.418-.405a6.9,6.9,0,0,1,2.646.494A6.263,6.263,0,0,1,41.36-7.058a6.232,6.232,0,0,1,1.367,2.089,7,7,0,0,1,.494,2.658A7,7,0,0,1,42.727.347,6.232,6.232,0,0,1,41.36,2.436,6.263,6.263,0,0,1,39.284,3.8a6.9,6.9,0,0,1-2.646.494A6.9,6.9,0,0,1,33.993,3.8a6.263,6.263,0,0,1-2.076-1.367A6.232,6.232,0,0,1,30.55.347a7,7,0,0,1-.494-2.658,7,7,0,0,1,.494-2.658,6.232,6.232,0,0,1,1.367-2.089,6.263,6.263,0,0,1,2.076-1.367A6.9,6.9,0,0,1,36.639-8.918Zm0,10.152A3.247,3.247,0,0,0,37.867.993,3.131,3.131,0,0,0,38.917.3a3.3,3.3,0,0,0,.722-1.114A3.961,3.961,0,0,0,39.9-2.311,3.961,3.961,0,0,0,39.639-3.8a3.3,3.3,0,0,0-.722-1.114,3.131,3.131,0,0,0-1.051-.7,3.247,3.247,0,0,0-1.228-.241,3.217,3.217,0,0,0-1.241.241,3.165,3.165,0,0,0-1.038.7A3.3,3.3,0,0,0,33.639-3.8a3.961,3.961,0,0,0-.266,1.494,3.961,3.961,0,0,0,.266,1.494A3.3,3.3,0,0,0,34.36.3a3.165,3.165,0,0,0,1.038.7A3.217,3.217,0,0,0,36.639,1.233ZM51.221-8.918a6.9,6.9,0,0,1,2.646.494,6.262,6.262,0,0,1,2.076,1.367A6.232,6.232,0,0,1,57.31-4.969,7,7,0,0,1,57.8-2.311,7,7,0,0,1,57.31.347a6.232,6.232,0,0,1-1.367,2.089A6.262,6.262,0,0,1,53.867,3.8a6.9,6.9,0,0,1-2.646.494A6.9,6.9,0,0,1,48.575,3.8,6.263,6.263,0,0,1,46.5,2.436,6.232,6.232,0,0,1,45.132.347a7,7,0,0,1-.494-2.658,7,7,0,0,1,.494-2.658A6.232,6.232,0,0,1,46.5-7.058a6.263,6.263,0,0,1,2.076-1.367A6.9,6.9,0,0,1,51.221-8.918Zm0,10.152A3.247,3.247,0,0,0,52.449.993,3.131,3.131,0,0,0,53.5.3a3.3,3.3,0,0,0,.722-1.114,3.961,3.961,0,0,0,.266-1.494A3.961,3.961,0,0,0,54.221-3.8,3.3,3.3,0,0,0,53.5-4.918a3.131,3.131,0,0,0-1.051-.7,3.247,3.247,0,0,0-1.228-.241,3.217,3.217,0,0,0-1.241.241,3.165,3.165,0,0,0-1.038.7A3.3,3.3,0,0,0,48.221-3.8a3.961,3.961,0,0,0-.266,1.494,3.961,3.961,0,0,0,.266,1.494A3.3,3.3,0,0,0,48.943.3a3.165,3.165,0,0,0,1.038.7A3.217,3.217,0,0,0,51.221,1.233ZM58.36-8.513h3.772l3.089,7.9H65.4l3.114-7.9h3.747L66.917,3.892H63.651Zm19.316,11.8-5.215-11.8h3.772L79.373-.994h.177l3.013-7.519h3.7L78.487,9.36h-3.57Z" transform="translate(117.26 78.64)" fill="#09090a"/></g></g></svg>