<svg xmlns="http://www.w3.org/2000/svg" xmlns:xlink="http://www.w3.org/1999/xlink" width="86" height="24" viewBox="0 0 86 24"><defs><clipPath id="b"><rect width="86" height="24"/></clipPath></defs><g id="a" clip-path="url(#b)"><g transform="translate(-82 -60)"><path d="M15.336,9H12.669l-2,6-4-12-2,6H2" transform="translate(84 63.5)" fill="none" stroke="#000" stroke-linecap="round" stroke-linejoin="round" stroke-width="2"/><path d="M7.07-8.917H13a3.962,3.962,0,0,1,.084.49,4.908,4.908,0,0,1,.034.574,6.7,6.7,0,0,1-.355,2.195,5.084,5.084,0,0,1-1.114,1.84A5.591,5.591,0,0,1,9.7-2.486a6.648,6.648,0,0,1-2.583.473A6.536,6.536,0,0,1,4.64-2.486,6.178,6.178,0,0,1,2.614-3.8a6.318,6.318,0,0,1-1.367-2A6.222,6.222,0,0,1,.74-8.326a6.222,6.222,0,0,1,.506-2.524,6.318,6.318,0,0,1,1.367-2A6.178,6.178,0,0,1,4.64-14.167a6.536,6.536,0,0,1,2.482-.473,6.482,6.482,0,0,1,2.625.506,5.878,5.878,0,0,1,1.984,1.4L10.16-11.2a4.188,4.188,0,0,0-1.317-.954A4.187,4.187,0,0,0,7.1-12.479a4.209,4.209,0,0,0-1.57.3,3.936,3.936,0,0,0-1.3.836,3.983,3.983,0,0,0-.886,1.308,4.307,4.307,0,0,0-.329,1.713,4.307,4.307,0,0,0,.329,1.713A3.919,3.919,0,0,0,4.243-5.3a4.031,4.031,0,0,0,1.308.836,4.254,4.254,0,0,0,1.587.3,4.228,4.228,0,0,0,1.629-.279A3.817,3.817,0,0,0,9.906-5.17a2.736,2.736,0,0,0,.582-.768,4.355,4.355,0,0,0,.38-1.038H7.07ZM14.4-10.555h2.076v1.148h.135a2.137,2.137,0,0,1,.405-.557,2.872,2.872,0,0,1,.566-.439,2.773,2.773,0,0,1,.675-.287,2.66,2.66,0,0,1,.717-.1,2.91,2.91,0,0,1,.751.084,2.016,2.016,0,0,1,.532.219l-.591,2.009a2.1,2.1,0,0,0-.447-.16,2.6,2.6,0,0,0-.6-.059,1.9,1.9,0,0,0-.827.177,1.818,1.818,0,0,0-.633.5,2.352,2.352,0,0,0-.405.751,2.946,2.946,0,0,0-.143.937v4.051H14.4Zm10.281-.27a4.6,4.6,0,0,1,1.764.329,4.176,4.176,0,0,1,1.384.912,4.156,4.156,0,0,1,.912,1.393,4.666,4.666,0,0,1,.329,1.773,4.666,4.666,0,0,1-.329,1.773,4.156,4.156,0,0,1-.912,1.393,4.176,4.176,0,0,1-1.384.912,4.6,4.6,0,0,1-1.764.329,4.6,4.6,0,0,1-1.764-.329,4.176,4.176,0,0,1-1.384-.912,4.156,4.156,0,0,1-.912-1.393,4.666,4.666,0,0,1-.329-1.773,4.666,4.666,0,0,1,.329-1.773,4.156,4.156,0,0,1,.912-1.393,4.176,4.176,0,0,1,1.384-.912A4.6,4.6,0,0,1,24.677-10.825Zm0,6.769a2.165,2.165,0,0,0,.819-.16,2.088,2.088,0,0,0,.7-.464,2.2,2.2,0,0,0,.481-.743,2.641,2.641,0,0,0,.177-1,2.641,2.641,0,0,0-.177-1,2.2,2.2,0,0,0-.481-.743,2.088,2.088,0,0,0-.7-.464,2.165,2.165,0,0,0-.819-.16,2.145,2.145,0,0,0-.827.16,2.11,2.11,0,0,0-.692.464,2.2,2.2,0,0,0-.481.743,2.641,2.641,0,0,0-.177,1,2.641,2.641,0,0,0,.177,1,2.2,2.2,0,0,0,.481.743,2.11,2.11,0,0,0,.692.464A2.145,2.145,0,0,0,24.677-4.056ZM34.4-10.825a4.6,4.6,0,0,1,1.764.329,4.176,4.176,0,0,1,1.384.912,4.156,4.156,0,0,1,.912,1.393,4.666,4.666,0,0,1,.329,1.773,4.666,4.666,0,0,1-.329,1.773,4.156,4.156,0,0,1-.912,1.393,4.176,4.176,0,0,1-1.384.912,4.6,4.6,0,0,1-1.764.329,4.6,4.6,0,0,1-1.764-.329,4.176,4.176,0,0,1-1.384-.912,4.156,4.156,0,0,1-.912-1.393,4.666,4.666,0,0,1-.329-1.773,4.666,4.666,0,0,1,.329-1.773,4.156,4.156,0,0,1,.912-1.393,4.176,4.176,0,0,1,1.384-.912A4.6,4.6,0,0,1,34.4-10.825Zm0,6.769a2.165,2.165,0,0,0,.819-.16,2.088,2.088,0,0,0,.7-.464,2.2,2.2,0,0,0,.481-.743,2.641,2.641,0,0,0,.177-1,2.641,2.641,0,0,0-.177-1,2.2,2.2,0,0,0-.481-.743,2.088,2.088,0,0,0-.7-.464,2.165,2.165,0,0,0-.819-.16,2.145,2.145,0,0,0-.827.16,2.11,2.11,0,0,0-.692.464,2.2,2.2,0,0,0-.481.743,2.641,2.641,0,0,0-.177,1,2.641,2.641,0,0,0,.177,1,2.2,2.2,0,0,0,.481.743,2.11,2.11,0,0,0,.692.464A2.145,2.145,0,0,0,34.4-4.056Zm4.76-6.5h2.515l2.059,5.267h.118l2.076-5.267h2.5L44.867-2.283H42.689Zm12.88,7.867-3.477-7.867h2.515l2.093,5.014h.118L55.3-10.555h2.465L52.582,1.363H50.2Z" transform="translate(106.598 78.64)" fill="#09090a"/></g></g></svg>